<?xml version="1.0" encoding="UTF-8"?><svg xmlns="http://www.w3.org/2000/svg" xmlns:xlink="http://www.w3.org/1999/xlink" fill-opacity="1" color-rendering="auto" color-interpolation="auto" text-rendering="auto" stroke="black" stroke-linecap="square" width="952" stroke-miterlimit="10" shape-rendering="auto" stroke-opacity="1" fill="black" stroke-dasharray="none" font-weight="normal" stroke-width="1" height="655" font-family="'Dialog'" font-style="normal" stroke-linejoin="miter" font-size="12px" stroke-dashoffset="0" image-rendering="auto">
  <!--Generated by ySVG 2.5-->
  <defs id="genericDefs"/>
  <g>
    <defs id="defs1">
      <clipPath clipPathUnits="userSpaceOnUse" id="clipPath1">
        <path d="M0 0 L952 0 L952 655 L0 655 L0 0 Z"/>
      </clipPath>
      <clipPath clipPathUnits="userSpaceOnUse" id="clipPath2">
        <path d="M226 -22 L1178 -22 L1178 633 L226 633 L226 -22 Z"/>
      </clipPath>
      <clipPath clipPathUnits="userSpaceOnUse" id="clipPath3">
        <path d="M857 135 L857 199 L971 199 L971 135 Z"/>
      </clipPath>
      <clipPath clipPathUnits="userSpaceOnUse" id="clipPath4">
        <path d="M551 -7 L551 57 L899 57 L899 -7 Z"/>
      </clipPath>
      <clipPath clipPathUnits="userSpaceOnUse" id="clipPath5">
        <path d="M842 226 L842 422 L987 422 L987 226 Z"/>
      </clipPath>
      <clipPath clipPathUnits="userSpaceOnUse" id="clipPath6">
        <path d="M1031 366 L1031 475 L1162 475 L1162 366 Z"/>
      </clipPath>
      <clipPath clipPathUnits="userSpaceOnUse" id="clipPath7">
        <path d="M865 440 L865 533 L965 533 L965 440 Z"/>
      </clipPath>
      <clipPath clipPathUnits="userSpaceOnUse" id="clipPath8">
        <path d="M1047 226 L1047 319 L1147 319 L1147 226 Z"/>
      </clipPath>
      <clipPath clipPathUnits="userSpaceOnUse" id="clipPath9">
        <path d="M727 432 L727 511 L827 511 L827 432 Z"/>
      </clipPath>
      <clipPath clipPathUnits="userSpaceOnUse" id="clipPath10">
        <path d="M1047 492 L1047 584 L1147 584 L1147 492 Z"/>
      </clipPath>
      <clipPath clipPathUnits="userSpaceOnUse" id="clipPath11">
        <path d="M649 135 L649 214 L800 214 L800 135 Z"/>
      </clipPath>
      <clipPath clipPathUnits="userSpaceOnUse" id="clipPath12">
        <path d="M569 432 L569 567 L669 567 L669 432 Z"/>
      </clipPath>
      <clipPath clipPathUnits="userSpaceOnUse" id="clipPath13">
        <path d="M411 145 L411 254 L532 254 L532 145 Z"/>
      </clipPath>
      <clipPath clipPathUnits="userSpaceOnUse" id="clipPath14">
        <path d="M562 300 L562 409 L676 409 L676 300 Z"/>
      </clipPath>
      <clipPath clipPathUnits="userSpaceOnUse" id="clipPath15">
        <path d="M266 300 L266 409 L366 409 L366 300 Z"/>
      </clipPath>
      <clipPath clipPathUnits="userSpaceOnUse" id="clipPath16">
        <path d="M266 439 L266 489 L366 489 L366 439 Z"/>
      </clipPath>
      <clipPath clipPathUnits="userSpaceOnUse" id="clipPath17">
        <path d="M399 300 L399 393 L544 393 L544 300 Z"/>
      </clipPath>
      <clipPath clipPathUnits="userSpaceOnUse" id="clipPath18">
        <path d="M406 410 L406 474 L537 474 L537 410 Z"/>
      </clipPath>
      <clipPath clipPathUnits="userSpaceOnUse" id="clipPath19">
        <path d="M422 494 L422 573 L522 573 L522 494 Z"/>
      </clipPath>
      <clipPath clipPathUnits="userSpaceOnUse" id="clipPath20">
        <path d="M241 507 L241 616 L392 616 L392 507 Z"/>
      </clipPath>
      <clipPath clipPathUnits="userSpaceOnUse" id="clipPath21">
        <path d="M972 -7 L972 85 L1072 85 L1072 -7 Z"/>
      </clipPath>
      <clipPath clipPathUnits="userSpaceOnUse" id="clipPath22">
        <path d="M387 4 L387 32 L487 32 L487 4 Z"/>
      </clipPath>
    </defs>
    <g fill="white" text-rendering="geometricPrecision" shape-rendering="geometricPrecision" transform="translate(-226,22)" stroke="white">
      <rect x="226" width="952" height="655" y="-22" clip-path="url(#clipPath2)" stroke="none"/>
    </g>
    <g fill="rgb(255,204,0)" text-rendering="geometricPrecision" shape-rendering="geometricPrecision" transform="matrix(1,0,0,1,-226,22)" stroke="rgb(255,204,0)">
      <rect x="858" width="112" height="62" y="136" clip-path="url(#clipPath2)" stroke="none"/>
      <rect x="857" y="135" clip-path="url(#clipPath2)" fill="yellow" width="1" height="64" stroke="none"/>
      <rect x="858" y="135" clip-path="url(#clipPath2)" fill="yellow" width="112" height="1" stroke="none"/>
      <rect x="858" y="198" clip-path="url(#clipPath2)" fill="rgb(178,142,0)" width="113" height="1" stroke="none"/>
      <rect x="970" y="135" clip-path="url(#clipPath2)" fill="rgb(178,142,0)" width="1" height="63" stroke="none"/>
    </g>
    <g font-size="13px" stroke-linecap="butt" transform="matrix(1,0,0,1,-226,22)" text-rendering="geometricPrecision" font-family="sans-serif" shape-rendering="geometricPrecision" font-weight="bold" stroke-miterlimit="1.45">
      <text x="898.0327" xml:space="preserve" y="153.0698" clip-path="url(#clipPath3)" stroke="none">Town</text>
    </g>
    <g text-rendering="geometricPrecision" shape-rendering="geometricPrecision" transform="matrix(1,0,0,1,-226,22)">
      <line y2="160" fill="none" x1="858" clip-path="url(#clipPath3)" x2="971" y1="160"/>
      <text stroke-linecap="butt" x="862.96" y="177.9907" clip-path="url(#clipPath3)" font-family="sans-serif" stroke="none" stroke-miterlimit="1.45" xml:space="preserve">Buildings [building]</text>
      <text stroke-linecap="butt" x="862.96" y="192.6919" clip-path="url(#clipPath3)" font-family="sans-serif" stroke="none" stroke-miterlimit="1.45" xml:space="preserve">Villagers [villager]</text>
      <line y2="200" fill="none" x1="858" clip-path="url(#clipPath3)" x2="971" y1="200"/>
      <rect x="552" y="-6" clip-path="url(#clipPath2)" fill="rgb(255,204,0)" width="346" height="62" stroke="none"/>
      <rect x="551" y="-7" clip-path="url(#clipPath2)" fill="yellow" width="1" height="64" stroke="none"/>
      <rect x="552" y="-7" clip-path="url(#clipPath2)" fill="yellow" width="346" height="1" stroke="none"/>
      <rect x="552" y="56" clip-path="url(#clipPath2)" fill="rgb(178,142,0)" width="347" height="1" stroke="none"/>
      <rect x="898" y="-7" clip-path="url(#clipPath2)" fill="rgb(178,142,0)" width="1" height="63" stroke="none"/>
    </g>
    <g font-size="13px" stroke-linecap="butt" transform="matrix(1,0,0,1,-226,22)" text-rendering="geometricPrecision" font-family="sans-serif" shape-rendering="geometricPrecision" font-weight="bold" stroke-miterlimit="1.45">
      <text x="706.9346" xml:space="preserve" y="11.0698" clip-path="url(#clipPath4)" stroke="none">Game</text>
    </g>
    <g text-rendering="geometricPrecision" shape-rendering="geometricPrecision" transform="matrix(1,0,0,1,-226,22)">
      <line y2="18" fill="none" x1="552" clip-path="url(#clipPath4)" x2="898" y1="18"/>
      <text stroke-linecap="butt" x="556" y="35.9907" clip-path="url(#clipPath4)" font-family="sans-serif" stroke="none" stroke-miterlimit="1.45" xml:space="preserve">settings</text>
      <text stroke-linecap="butt" x="556" y="50.6919" clip-path="url(#clipPath4)" font-family="sans-serif" stroke="none" stroke-miterlimit="1.45" xml:space="preserve">gameState</text>
      <line y2="58" fill="none" x1="552" clip-path="url(#clipPath4)" x2="898" y1="58"/>
      <rect x="843" y="227" clip-path="url(#clipPath2)" fill="rgb(255,204,0)" width="143" height="194" stroke="none"/>
      <rect x="842" y="226" clip-path="url(#clipPath2)" fill="yellow" width="1" height="196" stroke="none"/>
      <rect x="843" y="226" clip-path="url(#clipPath2)" fill="yellow" width="143" height="1" stroke="none"/>
      <rect x="843" y="421" clip-path="url(#clipPath2)" fill="rgb(178,142,0)" width="144" height="1" stroke="none"/>
      <rect x="986" y="226" clip-path="url(#clipPath2)" fill="rgb(178,142,0)" width="1" height="195" stroke="none"/>
    </g>
    <g font-size="13px" stroke-linecap="butt" transform="matrix(1,0,0,1,-226,22)" text-rendering="geometricPrecision" font-family="sans-serif" shape-rendering="geometricPrecision" font-weight="bold" stroke-miterlimit="1.45">
      <text x="892.2373" xml:space="preserve" y="244.9651" clip-path="url(#clipPath5)" stroke="none">villager</text>
    </g>
    <g text-rendering="geometricPrecision" shape-rendering="geometricPrecision" transform="matrix(1,0,0,1,-226,22)">
      <line y2="252" fill="none" x1="843" clip-path="url(#clipPath5)" x2="986" y1="252"/>
      <text stroke-linecap="butt" x="847.5" y="269.886" clip-path="url(#clipPath5)" font-family="sans-serif" stroke="none" stroke-miterlimit="1.45" xml:space="preserve">Name</text>
      <text stroke-linecap="butt" x="847.5" y="284.5872" clip-path="url(#clipPath5)" font-family="sans-serif" stroke="none" stroke-miterlimit="1.45" xml:space="preserve">Profession</text>
      <text stroke-linecap="butt" x="847.5" y="299.2884" clip-path="url(#clipPath5)" font-family="sans-serif" stroke="none" stroke-miterlimit="1.45" xml:space="preserve">Posessions [possession]</text>
      <text stroke-linecap="butt" x="847.5" y="313.9895" clip-path="url(#clipPath5)" font-family="sans-serif" stroke="none" stroke-miterlimit="1.45" xml:space="preserve">Preferences</text>
      <text stroke-linecap="butt" x="847.5" y="328.6907" clip-path="url(#clipPath5)" font-family="sans-serif" stroke="none" stroke-miterlimit="1.45" xml:space="preserve">Walkspeed</text>
      <text stroke-linecap="butt" x="847.5" y="343.3919" clip-path="url(#clipPath5)" font-family="sans-serif" stroke="none" stroke-miterlimit="1.45" xml:space="preserve">Workspeed</text>
      <text stroke-linecap="butt" x="847.5" y="358.093" clip-path="url(#clipPath5)" font-family="sans-serif" stroke="none" stroke-miterlimit="1.45" xml:space="preserve">Endurance</text>
      <text stroke-linecap="butt" x="847.5" y="372.7942" clip-path="url(#clipPath5)" font-family="sans-serif" stroke="none" stroke-miterlimit="1.45" xml:space="preserve">Needs</text>
      <text stroke-linecap="butt" x="847.5" y="387.4954" clip-path="url(#clipPath5)" font-family="sans-serif" stroke="none" stroke-miterlimit="1.45" xml:space="preserve">Desires</text>
      <text stroke-linecap="butt" x="847.5" y="402.1966" clip-path="url(#clipPath5)" font-family="sans-serif" stroke="none" stroke-miterlimit="1.45" xml:space="preserve">Inventory [possession]</text>
      <text stroke-linecap="butt" x="847.5" y="416.8977" clip-path="url(#clipPath5)" font-family="sans-serif" stroke="none" stroke-miterlimit="1.45" xml:space="preserve">CurrentGoal</text>
      <line y2="424" fill="none" x1="843" clip-path="url(#clipPath5)" x2="986" y1="424"/>
      <rect x="1032" y="367" clip-path="url(#clipPath2)" fill="rgb(255,204,0)" width="129" height="107" stroke="none"/>
      <rect x="1031" y="366" clip-path="url(#clipPath2)" fill="yellow" width="1" height="109" stroke="none"/>
      <rect x="1032" y="366" clip-path="url(#clipPath2)" fill="yellow" width="129" height="1" stroke="none"/>
      <rect x="1032" y="474" clip-path="url(#clipPath2)" fill="rgb(178,142,0)" width="130" height="1" stroke="none"/>
      <rect x="1161" y="366" clip-path="url(#clipPath2)" fill="rgb(178,142,0)" width="1" height="108" stroke="none"/>
    </g>
    <g font-size="13px" stroke-linecap="butt" transform="matrix(1,0,0,1,-226,22)" text-rendering="geometricPrecision" font-family="sans-serif" shape-rendering="geometricPrecision" font-weight="bold" stroke-miterlimit="1.45">
      <text x="1040.2736" xml:space="preserve" y="384.2451" clip-path="url(#clipPath6)" stroke="none">functionalBuilding</text>
    </g>
    <g text-rendering="geometricPrecision" shape-rendering="geometricPrecision" transform="matrix(1,0,0,1,-226,22)">
      <line y2="392" fill="none" x1="1032" clip-path="url(#clipPath6)" x2="1162" y1="392"/>
      <text stroke-linecap="butt" x="1036.64" y="409.166" clip-path="url(#clipPath6)" font-family="sans-serif" stroke="none" stroke-miterlimit="1.45" xml:space="preserve">Recipes [recipe]</text>
      <text stroke-linecap="butt" x="1036.64" y="423.8672" clip-path="url(#clipPath6)" font-family="sans-serif" stroke="none" stroke-miterlimit="1.45" xml:space="preserve">Output</text>
      <text stroke-linecap="butt" x="1036.64" y="438.5684" clip-path="url(#clipPath6)" font-family="sans-serif" stroke="none" stroke-miterlimit="1.45" xml:space="preserve">Storage</text>
      <text stroke-linecap="butt" x="1036.64" y="453.2695" clip-path="url(#clipPath6)" font-family="sans-serif" stroke="none" stroke-miterlimit="1.45" xml:space="preserve">Professionmodifiers</text>
      <text stroke-linecap="butt" x="1036.64" y="467.9707" clip-path="url(#clipPath6)" font-family="sans-serif" stroke="none" stroke-miterlimit="1.45" xml:space="preserve">Staff</text>
      <line y2="475" fill="none" x1="1032" clip-path="url(#clipPath6)" x2="1162" y1="475"/>
      <rect x="866" y="441" clip-path="url(#clipPath2)" fill="rgb(255,204,0)" width="98" height="91" stroke="none"/>
      <rect x="865" y="440" clip-path="url(#clipPath2)" fill="yellow" width="1" height="93" stroke="none"/>
      <rect x="866" y="440" clip-path="url(#clipPath2)" fill="yellow" width="98" height="1" stroke="none"/>
      <rect x="866" y="532" clip-path="url(#clipPath2)" fill="rgb(178,142,0)" width="99" height="1" stroke="none"/>
      <rect x="964" y="440" clip-path="url(#clipPath2)" fill="rgb(178,142,0)" width="1" height="92" stroke="none"/>
    </g>
    <g font-size="13px" stroke-linecap="butt" transform="matrix(1,0,0,1,-226,22)" text-rendering="geometricPrecision" font-family="sans-serif" shape-rendering="geometricPrecision" font-weight="bold" stroke-miterlimit="1.45">
      <text x="879.2373" xml:space="preserve" y="458.1651" clip-path="url(#clipPath7)" stroke="none">possession</text>
    </g>
    <g text-rendering="geometricPrecision" shape-rendering="geometricPrecision" transform="matrix(1,0,0,1,-226,22)">
      <line y2="466" fill="none" x1="866" clip-path="url(#clipPath7)" x2="964" y1="466"/>
      <text stroke-linecap="butt" x="870" y="483.086" clip-path="url(#clipPath7)" font-family="sans-serif" stroke="none" stroke-miterlimit="1.45" xml:space="preserve">Name</text>
      <text stroke-linecap="butt" x="870" y="497.7872" clip-path="url(#clipPath7)" font-family="sans-serif" stroke="none" stroke-miterlimit="1.45" xml:space="preserve">Owner</text>
      <text stroke-linecap="butt" x="870" y="512.4883" clip-path="url(#clipPath7)" font-family="sans-serif" stroke="none" stroke-miterlimit="1.45" xml:space="preserve">Graphic</text>
      <text stroke-linecap="butt" x="870" y="527.1895" clip-path="url(#clipPath7)" font-family="sans-serif" stroke="none" stroke-miterlimit="1.45" xml:space="preserve">Icon</text>
      <line y2="534" fill="none" x1="866" clip-path="url(#clipPath7)" x2="964" y1="534"/>
      <rect x="1048" y="227" clip-path="url(#clipPath2)" fill="rgb(255,204,0)" width="98" height="91" stroke="none"/>
      <rect x="1047" y="226" clip-path="url(#clipPath2)" fill="yellow" width="1" height="93" stroke="none"/>
      <rect x="1048" y="226" clip-path="url(#clipPath2)" fill="yellow" width="98" height="1" stroke="none"/>
      <rect x="1048" y="318" clip-path="url(#clipPath2)" fill="rgb(178,142,0)" width="99" height="1" stroke="none"/>
      <rect x="1146" y="226" clip-path="url(#clipPath2)" fill="rgb(178,142,0)" width="1" height="92" stroke="none"/>
    </g>
    <g font-size="13px" stroke-linecap="butt" transform="matrix(1,0,0,1,-226,22)" text-rendering="geometricPrecision" font-family="sans-serif" shape-rendering="geometricPrecision" font-weight="bold" stroke-miterlimit="1.45">
      <text x="1072.0499" xml:space="preserve" y="244.9651" clip-path="url(#clipPath8)" stroke="none">building</text>
    </g>
    <g text-rendering="geometricPrecision" shape-rendering="geometricPrecision" transform="matrix(1,0,0,1,-226,22)">
      <line y2="252" fill="none" x1="1048" clip-path="url(#clipPath8)" x2="1146" y1="252"/>
      <text stroke-linecap="butt" x="1052.3199" y="269.886" clip-path="url(#clipPath8)" font-family="sans-serif" stroke="none" stroke-miterlimit="1.45" xml:space="preserve">Price</text>
      <text stroke-linecap="butt" x="1052.3199" y="284.5872" clip-path="url(#clipPath8)" font-family="sans-serif" stroke="none" stroke-miterlimit="1.45" xml:space="preserve">Rent</text>
      <text stroke-linecap="butt" x="1052.3199" y="299.2884" clip-path="url(#clipPath8)" font-family="sans-serif" stroke="none" stroke-miterlimit="1.45" xml:space="preserve">Renter</text>
      <text stroke-linecap="butt" x="1052.3199" y="313.9895" clip-path="url(#clipPath8)" font-family="sans-serif" stroke="none" stroke-miterlimit="1.45" xml:space="preserve">Size</text>
      <line y2="321" fill="none" x1="1048" clip-path="url(#clipPath8)" x2="1146" y1="321"/>
      <rect x="728" y="433" clip-path="url(#clipPath2)" fill="rgb(255,204,0)" width="98" height="77" stroke="none"/>
      <rect x="727" y="432" clip-path="url(#clipPath2)" fill="yellow" width="1" height="79" stroke="none"/>
      <rect x="728" y="432" clip-path="url(#clipPath2)" fill="yellow" width="98" height="1" stroke="none"/>
      <rect x="728" y="510" clip-path="url(#clipPath2)" fill="rgb(178,142,0)" width="99" height="1" stroke="none"/>
      <rect x="826" y="432" clip-path="url(#clipPath2)" fill="rgb(178,142,0)" width="1" height="78" stroke="none"/>
    </g>
    <g font-size="13px" stroke-linecap="butt" transform="matrix(1,0,0,1,-226,22)" text-rendering="geometricPrecision" font-family="sans-serif" shape-rendering="geometricPrecision" font-weight="bold" stroke-miterlimit="1.45">
      <text x="763.835" xml:space="preserve" y="450.1651" clip-path="url(#clipPath9)" stroke="none">item</text>
    </g>
    <g text-rendering="geometricPrecision" shape-rendering="geometricPrecision" transform="matrix(1,0,0,1,-226,22)">
      <line y2="458" fill="none" x1="728" clip-path="url(#clipPath9)" x2="826" y1="458"/>
      <text stroke-linecap="butt" x="732.2" y="475.086" clip-path="url(#clipPath9)" font-family="sans-serif" stroke="none" stroke-miterlimit="1.45" xml:space="preserve">Size</text>
      <text stroke-linecap="butt" x="732.2" y="489.7872" clip-path="url(#clipPath9)" font-family="sans-serif" stroke="none" stroke-miterlimit="1.45" xml:space="preserve">Weight</text>
      <text stroke-linecap="butt" x="732.2" y="504.4884" clip-path="url(#clipPath9)" font-family="sans-serif" stroke="none" stroke-miterlimit="1.45" xml:space="preserve">HiddenValue</text>
      <line y2="512" fill="none" x1="728" clip-path="url(#clipPath9)" x2="826" y1="512"/>
      <rect x="1048" y="493" clip-path="url(#clipPath2)" fill="rgb(255,204,0)" width="98" height="90" stroke="none"/>
      <rect x="1047" y="492" clip-path="url(#clipPath2)" fill="yellow" width="1" height="92" stroke="none"/>
      <rect x="1048" y="492" clip-path="url(#clipPath2)" fill="yellow" width="98" height="1" stroke="none"/>
      <rect x="1048" y="583" clip-path="url(#clipPath2)" fill="rgb(178,142,0)" width="99" height="1" stroke="none"/>
      <rect x="1146" y="492" clip-path="url(#clipPath2)" fill="rgb(178,142,0)" width="1" height="91" stroke="none"/>
    </g>
    <g font-size="13px" stroke-linecap="butt" transform="matrix(1,0,0,1,-226,22)" text-rendering="geometricPrecision" font-family="sans-serif" shape-rendering="geometricPrecision" font-weight="bold" stroke-miterlimit="1.45">
      <text x="1078.1691" xml:space="preserve" y="510.1651" clip-path="url(#clipPath10)" stroke="none">recipe</text>
    </g>
    <g text-rendering="geometricPrecision" shape-rendering="geometricPrecision" transform="matrix(1,0,0,1,-226,22)">
      <line y2="518" fill="none" x1="1048" clip-path="url(#clipPath10)" x2="1146" y1="518"/>
      <text stroke-linecap="butt" x="1052.3199" y="535.086" clip-path="url(#clipPath10)" font-family="sans-serif" stroke="none" stroke-miterlimit="1.45" xml:space="preserve">Input [item]</text>
      <text stroke-linecap="butt" x="1052.3199" y="549.7872" clip-path="url(#clipPath10)" font-family="sans-serif" stroke="none" stroke-miterlimit="1.45" xml:space="preserve">Output [item]</text>
      <text stroke-linecap="butt" x="1052.3199" y="564.4883" clip-path="url(#clipPath10)" font-family="sans-serif" stroke="none" stroke-miterlimit="1.45" xml:space="preserve">TimeNeeded</text>
      <text stroke-linecap="butt" x="1052.3199" y="579.1895" clip-path="url(#clipPath10)" font-family="sans-serif" stroke="none" stroke-miterlimit="1.45" xml:space="preserve">IsUnlocked</text>
      <line y2="586" fill="none" x1="1048" clip-path="url(#clipPath10)" x2="1146" y1="586"/>
      <rect x="650" y="136" clip-path="url(#clipPath2)" fill="rgb(255,204,0)" width="149" height="77" stroke="none"/>
      <rect x="649" y="135" clip-path="url(#clipPath2)" fill="yellow" width="1" height="79" stroke="none"/>
      <rect x="650" y="135" clip-path="url(#clipPath2)" fill="yellow" width="149" height="1" stroke="none"/>
      <rect x="650" y="213" clip-path="url(#clipPath2)" fill="rgb(178,142,0)" width="150" height="1" stroke="none"/>
      <rect x="799" y="135" clip-path="url(#clipPath2)" fill="rgb(178,142,0)" width="1" height="78" stroke="none"/>
    </g>
    <g font-size="13px" stroke-linecap="butt" transform="matrix(1,0,0,1,-226,22)" text-rendering="geometricPrecision" font-family="sans-serif" shape-rendering="geometricPrecision" font-weight="bold" stroke-miterlimit="1.45">
      <text x="705.4841" xml:space="preserve" y="153.0698" clip-path="url(#clipPath11)" stroke="none">Player</text>
    </g>
    <g text-rendering="geometricPrecision" shape-rendering="geometricPrecision" transform="matrix(1,0,0,1,-226,22)">
      <line y2="160" fill="none" x1="650" clip-path="url(#clipPath11)" x2="799" y1="160"/>
      <text stroke-linecap="butt" x="654.5" y="177.9907" clip-path="url(#clipPath11)" font-family="sans-serif" stroke="none" stroke-miterlimit="1.45" xml:space="preserve">Name</text>
      <text stroke-linecap="butt" x="654.5" y="192.6919" clip-path="url(#clipPath11)" font-family="sans-serif" stroke="none" stroke-miterlimit="1.45" xml:space="preserve">Possessions [possession]</text>
      <text stroke-linecap="butt" x="654.5" y="207.3931" clip-path="url(#clipPath11)" font-family="sans-serif" stroke="none" stroke-miterlimit="1.45" xml:space="preserve">TechTree</text>
      <line y2="215" fill="none" x1="650" clip-path="url(#clipPath11)" x2="799" y1="215"/>
      <rect x="570" y="433" clip-path="url(#clipPath2)" fill="rgb(255,204,0)" width="98" height="133" stroke="none"/>
      <rect x="569" y="432" clip-path="url(#clipPath2)" fill="yellow" width="1" height="135" stroke="none"/>
      <rect x="570" y="432" clip-path="url(#clipPath2)" fill="yellow" width="98" height="1" stroke="none"/>
      <rect x="570" y="566" clip-path="url(#clipPath2)" fill="rgb(178,142,0)" width="99" height="1" stroke="none"/>
      <rect x="668" y="432" clip-path="url(#clipPath2)" fill="rgb(178,142,0)" width="1" height="134" stroke="none"/>
    </g>
    <g font-size="13px" stroke-linecap="butt" transform="matrix(1,0,0,1,-226,22)" text-rendering="geometricPrecision" font-family="sans-serif" shape-rendering="geometricPrecision" font-weight="bold" stroke-miterlimit="1.45">
      <text x="605.85" xml:space="preserve" y="450.1651" clip-path="url(#clipPath12)" stroke="none">card</text>
    </g>
    <g text-rendering="geometricPrecision" shape-rendering="geometricPrecision" transform="matrix(1,0,0,1,-226,22)">
      <line y2="458" fill="none" x1="570" clip-path="url(#clipPath12)" x2="668" y1="458"/>
      <text stroke-linecap="butt" x="574.58" y="475.086" clip-path="url(#clipPath12)" font-family="sans-serif" stroke="none" stroke-miterlimit="1.45" xml:space="preserve">Name</text>
      <text stroke-linecap="butt" x="574.58" y="489.7872" clip-path="url(#clipPath12)" font-family="sans-serif" stroke="none" stroke-miterlimit="1.45" xml:space="preserve">Priority</text>
      <text stroke-linecap="butt" x="574.58" y="504.4884" clip-path="url(#clipPath12)" font-family="sans-serif" stroke="none" stroke-miterlimit="1.45" xml:space="preserve">Effect</text>
      <text stroke-linecap="butt" x="574.58" y="519.1895" clip-path="url(#clipPath12)" font-family="sans-serif" stroke="none" stroke-miterlimit="1.45" xml:space="preserve">Graphic</text>
      <text stroke-linecap="butt" x="574.58" y="533.8907" clip-path="url(#clipPath12)" font-family="sans-serif" stroke="none" stroke-miterlimit="1.45" xml:space="preserve">Type</text>
      <text stroke-linecap="butt" x="574.58" y="548.5919" clip-path="url(#clipPath12)" font-family="sans-serif" stroke="none" stroke-miterlimit="1.45" xml:space="preserve">Text</text>
      <text stroke-linecap="butt" x="574.58" y="563.293" clip-path="url(#clipPath12)" font-family="sans-serif" stroke="none" stroke-miterlimit="1.45" xml:space="preserve">...</text>
      <line y2="570" fill="none" x1="570" clip-path="url(#clipPath12)" x2="668" y1="570"/>
      <rect x="412" y="146" clip-path="url(#clipPath2)" fill="rgb(255,204,0)" width="119" height="107" stroke="none"/>
      <rect x="411" y="145" clip-path="url(#clipPath2)" fill="yellow" width="1" height="109" stroke="none"/>
      <rect x="412" y="145" clip-path="url(#clipPath2)" fill="yellow" width="119" height="1" stroke="none"/>
      <rect x="412" y="253" clip-path="url(#clipPath2)" fill="rgb(178,142,0)" width="120" height="1" stroke="none"/>
      <rect x="531" y="145" clip-path="url(#clipPath2)" fill="rgb(178,142,0)" width="1" height="108" stroke="none"/>
    </g>
    <g font-size="13px" stroke-linecap="butt" transform="matrix(1,0,0,1,-226,22)" text-rendering="geometricPrecision" font-family="sans-serif" shape-rendering="geometricPrecision" font-weight="bold" stroke-miterlimit="1.45">
      <text x="439.1255" xml:space="preserve" y="163.4298" clip-path="url(#clipPath13)" stroke="none">CardGame</text>
    </g>
    <g text-rendering="geometricPrecision" shape-rendering="geometricPrecision" transform="matrix(1,0,0,1,-226,22)">
      <line y2="171" fill="none" x1="412" clip-path="url(#clipPath13)" x2="531" y1="171"/>
      <text stroke-linecap="butt" x="416.46" y="188.3507" clip-path="url(#clipPath13)" font-family="sans-serif" stroke="none" stroke-miterlimit="1.45" xml:space="preserve">Deck</text>
      <text stroke-linecap="butt" x="416.46" y="203.0519" clip-path="url(#clipPath13)" font-family="sans-serif" stroke="none" stroke-miterlimit="1.45" xml:space="preserve">Character [creature]</text>
      <text stroke-linecap="butt" x="416.46" y="217.7531" clip-path="url(#clipPath13)" font-family="sans-serif" stroke="none" stroke-miterlimit="1.45" xml:space="preserve">Items [item]</text>
      <text stroke-linecap="butt" x="416.46" y="232.4542" clip-path="url(#clipPath13)" font-family="sans-serif" stroke="none" stroke-miterlimit="1.45" xml:space="preserve">Battle</text>
      <text stroke-linecap="butt" x="416.46" y="247.1554" clip-path="url(#clipPath13)" font-family="sans-serif" stroke="none" stroke-miterlimit="1.45" xml:space="preserve">Boni</text>
      <line y2="254" fill="none" x1="412" clip-path="url(#clipPath13)" x2="531" y1="254"/>
      <rect x="563" y="301" clip-path="url(#clipPath2)" fill="rgb(255,204,0)" width="112" height="107" stroke="none"/>
      <rect x="562" y="300" clip-path="url(#clipPath2)" fill="yellow" width="1" height="109" stroke="none"/>
      <rect x="563" y="300" clip-path="url(#clipPath2)" fill="yellow" width="112" height="1" stroke="none"/>
      <rect x="563" y="408" clip-path="url(#clipPath2)" fill="rgb(178,142,0)" width="113" height="1" stroke="none"/>
      <rect x="675" y="300" clip-path="url(#clipPath2)" fill="rgb(178,142,0)" width="1" height="108" stroke="none"/>
    </g>
    <g font-size="13px" stroke-linecap="butt" transform="matrix(1,0,0,1,-226,22)" text-rendering="geometricPrecision" font-family="sans-serif" shape-rendering="geometricPrecision" font-weight="bold" stroke-miterlimit="1.45">
      <text x="604.041" xml:space="preserve" y="318.0698" clip-path="url(#clipPath14)" stroke="none">Deck</text>
    </g>
    <g text-rendering="geometricPrecision" shape-rendering="geometricPrecision" transform="matrix(1,0,0,1,-226,22)">
      <line y2="325" fill="none" x1="563" clip-path="url(#clipPath14)" x2="675" y1="325"/>
      <text stroke-linecap="butt" x="567.54" y="342.9907" clip-path="url(#clipPath14)" font-family="sans-serif" stroke="none" stroke-miterlimit="1.45" xml:space="preserve">HandMaxSize</text>
      <text stroke-linecap="butt" x="567.54" y="357.6919" clip-path="url(#clipPath14)" font-family="sans-serif" stroke="none" stroke-miterlimit="1.45" xml:space="preserve">Hand [card]</text>
      <text stroke-linecap="butt" x="567.54" y="372.3931" clip-path="url(#clipPath14)" font-family="sans-serif" stroke="none" stroke-miterlimit="1.45" xml:space="preserve">DrawPile [card]</text>
      <text stroke-linecap="butt" x="567.54" y="387.0942" clip-path="url(#clipPath14)" font-family="sans-serif" stroke="none" stroke-miterlimit="1.45" xml:space="preserve">DiscardPile [card]</text>
      <text stroke-linecap="butt" x="567.54" y="401.7954" clip-path="url(#clipPath14)" font-family="sans-serif" stroke="none" stroke-miterlimit="1.45" xml:space="preserve">InGamePile [card]</text>
      <line y2="409" fill="none" x1="563" clip-path="url(#clipPath14)" x2="675" y1="409"/>
      <rect x="267" y="301" clip-path="url(#clipPath2)" fill="rgb(255,204,0)" width="98" height="107" stroke="none"/>
      <rect x="266" y="300" clip-path="url(#clipPath2)" fill="yellow" width="1" height="109" stroke="none"/>
      <rect x="267" y="300" clip-path="url(#clipPath2)" fill="yellow" width="98" height="1" stroke="none"/>
      <rect x="267" y="408" clip-path="url(#clipPath2)" fill="rgb(178,142,0)" width="99" height="1" stroke="none"/>
      <rect x="365" y="300" clip-path="url(#clipPath2)" fill="rgb(178,142,0)" width="1" height="108" stroke="none"/>
    </g>
    <g font-size="13px" stroke-linecap="butt" transform="matrix(1,0,0,1,-226,22)" text-rendering="geometricPrecision" font-family="sans-serif" shape-rendering="geometricPrecision" font-weight="bold" stroke-miterlimit="1.45">
      <text x="290.8459" xml:space="preserve" y="318.0698" clip-path="url(#clipPath15)" stroke="none">creature</text>
    </g>
    <g text-rendering="geometricPrecision" shape-rendering="geometricPrecision" transform="matrix(1,0,0,1,-226,22)">
      <line y2="325" fill="none" x1="267" clip-path="url(#clipPath15)" x2="365" y1="325"/>
      <text stroke-linecap="butt" x="271.5" y="342.9907" clip-path="url(#clipPath15)" font-family="sans-serif" stroke="none" stroke-miterlimit="1.45" xml:space="preserve">Name</text>
      <text stroke-linecap="butt" x="271.5" y="357.6919" clip-path="url(#clipPath15)" font-family="sans-serif" stroke="none" stroke-miterlimit="1.45" xml:space="preserve">Health</text>
      <text stroke-linecap="butt" x="271.5" y="372.3931" clip-path="url(#clipPath15)" font-family="sans-serif" stroke="none" stroke-miterlimit="1.45" xml:space="preserve">Resistences</text>
      <text stroke-linecap="butt" x="271.5" y="387.0942" clip-path="url(#clipPath15)" font-family="sans-serif" stroke="none" stroke-miterlimit="1.45" xml:space="preserve">Block</text>
      <text stroke-linecap="butt" x="271.5" y="401.7954" clip-path="url(#clipPath15)" font-family="sans-serif" stroke="none" stroke-miterlimit="1.45" xml:space="preserve">Effects</text>
      <line y2="409" fill="none" x1="267" clip-path="url(#clipPath15)" x2="365" y1="409"/>
      <rect x="267" y="440" clip-path="url(#clipPath2)" fill="rgb(255,204,0)" width="98" height="48" stroke="none"/>
      <rect x="266" y="439" clip-path="url(#clipPath2)" fill="yellow" width="1" height="50" stroke="none"/>
      <rect x="267" y="439" clip-path="url(#clipPath2)" fill="yellow" width="98" height="1" stroke="none"/>
      <rect x="267" y="488" clip-path="url(#clipPath2)" fill="rgb(178,142,0)" width="99" height="1" stroke="none"/>
      <rect x="365" y="439" clip-path="url(#clipPath2)" fill="rgb(178,142,0)" width="1" height="49" stroke="none"/>
    </g>
    <g font-size="13px" stroke-linecap="butt" transform="matrix(1,0,0,1,-226,22)" text-rendering="geometricPrecision" font-family="sans-serif" shape-rendering="geometricPrecision" font-weight="bold" stroke-miterlimit="1.45">
      <text x="295.905" xml:space="preserve" y="457.3498" clip-path="url(#clipPath16)" stroke="none">enemy</text>
    </g>
    <g text-rendering="geometricPrecision" shape-rendering="geometricPrecision" transform="matrix(1,0,0,1,-226,22)">
      <line y2="465" fill="none" x1="267" clip-path="url(#clipPath16)" x2="365" y1="465"/>
      <text stroke-linecap="butt" x="271.5" y="482.2707" clip-path="url(#clipPath16)" font-family="sans-serif" stroke="none" stroke-miterlimit="1.45" xml:space="preserve">Abilities [ability]</text>
      <line y2="489" fill="none" x1="267" clip-path="url(#clipPath16)" x2="365" y1="489"/>
      <rect x="400" y="301" clip-path="url(#clipPath2)" fill="rgb(255,204,0)" width="143" height="91" stroke="none"/>
      <rect x="399" y="300" clip-path="url(#clipPath2)" fill="yellow" width="1" height="93" stroke="none"/>
      <rect x="400" y="300" clip-path="url(#clipPath2)" fill="yellow" width="143" height="1" stroke="none"/>
      <rect x="400" y="392" clip-path="url(#clipPath2)" fill="rgb(178,142,0)" width="144" height="1" stroke="none"/>
      <rect x="543" y="300" clip-path="url(#clipPath2)" fill="rgb(178,142,0)" width="1" height="92" stroke="none"/>
    </g>
    <g font-size="13px" stroke-linecap="butt" transform="matrix(1,0,0,1,-226,22)" text-rendering="geometricPrecision" font-family="sans-serif" shape-rendering="geometricPrecision" font-weight="bold" stroke-miterlimit="1.45">
      <text x="453.9409" xml:space="preserve" y="318.0698" clip-path="url(#clipPath17)" stroke="none">Battle</text>
    </g>
    <g text-rendering="geometricPrecision" shape-rendering="geometricPrecision" transform="matrix(1,0,0,1,-226,22)">
      <line y2="325" fill="none" x1="400" clip-path="url(#clipPath17)" x2="543" y1="325"/>
      <text stroke-linecap="butt" x="404.5" y="342.9907" clip-path="url(#clipPath17)" font-family="sans-serif" stroke="none" stroke-miterlimit="1.45" xml:space="preserve">Character [creature]</text>
      <text stroke-linecap="butt" x="404.5" y="357.6919" clip-path="url(#clipPath17)" font-family="sans-serif" stroke="none" stroke-miterlimit="1.45" xml:space="preserve">Enemies [enemy]</text>
      <text stroke-linecap="butt" x="404.5" y="372.3931" clip-path="url(#clipPath17)" font-family="sans-serif" stroke="none" stroke-miterlimit="1.45" xml:space="preserve">TurnStack [turn]</text>
      <text stroke-linecap="butt" x="404.5" y="387.0942" clip-path="url(#clipPath17)" font-family="sans-serif" stroke="none" stroke-miterlimit="1.45" xml:space="preserve">CardGameState</text>
      <line y2="394" fill="none" x1="400" clip-path="url(#clipPath17)" x2="543" y1="394"/>
      <rect x="407" y="411" clip-path="url(#clipPath2)" fill="rgb(255,204,0)" width="129" height="62" stroke="none"/>
      <rect x="406" y="410" clip-path="url(#clipPath2)" fill="yellow" width="1" height="64" stroke="none"/>
      <rect x="407" y="410" clip-path="url(#clipPath2)" fill="yellow" width="129" height="1" stroke="none"/>
      <rect x="407" y="473" clip-path="url(#clipPath2)" fill="rgb(178,142,0)" width="130" height="1" stroke="none"/>
      <rect x="536" y="410" clip-path="url(#clipPath2)" fill="rgb(178,142,0)" width="1" height="63" stroke="none"/>
    </g>
    <g font-size="13px" stroke-linecap="butt" transform="matrix(1,0,0,1,-226,22)" text-rendering="geometricPrecision" font-family="sans-serif" shape-rendering="geometricPrecision" font-weight="bold" stroke-miterlimit="1.45">
      <text x="459.365" xml:space="preserve" y="428.8419" clip-path="url(#clipPath18)" stroke="none">turn</text>
    </g>
    <g text-rendering="geometricPrecision" shape-rendering="geometricPrecision" transform="matrix(1,0,0,1,-226,22)">
      <line y2="436" fill="none" x1="407" clip-path="url(#clipPath18)" x2="536" y1="436"/>
      <text stroke-linecap="butt" x="411.32" y="453.7628" clip-path="url(#clipPath18)" font-family="sans-serif" stroke="none" stroke-miterlimit="1.45" xml:space="preserve">TurnState</text>
      <text stroke-linecap="butt" x="411.32" y="468.464" clip-path="url(#clipPath18)" font-family="sans-serif" stroke="none" stroke-miterlimit="1.45" xml:space="preserve">PlayedMoves [move]</text>
      <line y2="476" fill="none" x1="407" clip-path="url(#clipPath18)" x2="536" y1="476"/>
      <rect x="423" y="495" clip-path="url(#clipPath2)" fill="rgb(255,204,0)" width="98" height="77" stroke="none"/>
      <rect x="422" y="494" clip-path="url(#clipPath2)" fill="yellow" width="1" height="79" stroke="none"/>
      <rect x="423" y="494" clip-path="url(#clipPath2)" fill="yellow" width="98" height="1" stroke="none"/>
      <rect x="423" y="572" clip-path="url(#clipPath2)" fill="rgb(178,142,0)" width="99" height="1" stroke="none"/>
      <rect x="521" y="494" clip-path="url(#clipPath2)" fill="rgb(178,142,0)" width="1" height="78" stroke="none"/>
    </g>
    <g font-size="13px" stroke-linecap="butt" transform="matrix(1,0,0,1,-226,22)" text-rendering="geometricPrecision" font-family="sans-serif" shape-rendering="geometricPrecision" font-weight="bold" stroke-miterlimit="1.45">
      <text x="455.02" xml:space="preserve" y="512.3499" clip-path="url(#clipPath19)" stroke="none">move</text>
    </g>
    <g text-rendering="geometricPrecision" shape-rendering="geometricPrecision" transform="matrix(1,0,0,1,-226,22)">
      <line y2="520" fill="none" x1="423" clip-path="url(#clipPath19)" x2="521" y1="520"/>
      <text stroke-linecap="butt" x="427" y="537.2708" clip-path="url(#clipPath19)" font-family="sans-serif" stroke="none" stroke-miterlimit="1.45" xml:space="preserve">ability | card</text>
      <text stroke-linecap="butt" x="427" y="551.9719" clip-path="url(#clipPath19)" font-family="sans-serif" stroke="none" stroke-miterlimit="1.45" xml:space="preserve">Target [creature]</text>
      <text stroke-linecap="butt" x="427" y="566.6731" clip-path="url(#clipPath19)" font-family="sans-serif" stroke="none" stroke-miterlimit="1.45" xml:space="preserve">Changes</text>
      <line y2="574" fill="none" x1="423" clip-path="url(#clipPath19)" x2="521" y1="574"/>
      <rect x="242" y="508" clip-path="url(#clipPath2)" fill="rgb(255,204,0)" width="149" height="107" stroke="none"/>
      <rect x="241" y="507" clip-path="url(#clipPath2)" fill="yellow" width="1" height="109" stroke="none"/>
      <rect x="242" y="507" clip-path="url(#clipPath2)" fill="yellow" width="149" height="1" stroke="none"/>
      <rect x="242" y="615" clip-path="url(#clipPath2)" fill="rgb(178,142,0)" width="150" height="1" stroke="none"/>
      <rect x="391" y="507" clip-path="url(#clipPath2)" fill="rgb(178,142,0)" width="1" height="108" stroke="none"/>
    </g>
    <g font-size="13px" stroke-linecap="butt" transform="matrix(1,0,0,1,-226,22)" text-rendering="geometricPrecision" font-family="sans-serif" shape-rendering="geometricPrecision" font-weight="bold" stroke-miterlimit="1.45">
      <text x="297.7173" xml:space="preserve" y="525.9898" clip-path="url(#clipPath20)" stroke="none">ability</text>
    </g>
    <g text-rendering="geometricPrecision" shape-rendering="geometricPrecision" transform="matrix(1,0,0,1,-226,22)">
      <line y2="533" fill="none" x1="242" clip-path="url(#clipPath20)" x2="391" y1="533"/>
      <text stroke-linecap="butt" x="246" y="550.9107" clip-path="url(#clipPath20)" font-family="sans-serif" stroke="none" stroke-miterlimit="1.45" xml:space="preserve">Name</text>
      <text stroke-linecap="butt" x="246" y="565.6119" clip-path="url(#clipPath20)" font-family="sans-serif" stroke="none" stroke-miterlimit="1.45" xml:space="preserve">Effect</text>
      <text stroke-linecap="butt" x="246" y="580.313" clip-path="url(#clipPath20)" font-family="sans-serif" stroke="none" stroke-miterlimit="1.45" xml:space="preserve">Probability</text>
      <line y2="587" fill="none" x1="242" clip-path="url(#clipPath20)" x2="391" y1="587"/>
      <text stroke-linecap="butt" x="246" y="605.0142" clip-path="url(#clipPath20)" font-family="sans-serif" stroke="none" stroke-miterlimit="1.45" xml:space="preserve">IsRequirementsFullfilled()</text>
      <rect x="973" y="-6" clip-path="url(#clipPath2)" fill="rgb(255,204,0)" width="98" height="90" stroke="none"/>
      <rect x="972" y="-7" clip-path="url(#clipPath2)" fill="yellow" width="1" height="92" stroke="none"/>
      <rect x="973" y="-7" clip-path="url(#clipPath2)" fill="yellow" width="98" height="1" stroke="none"/>
      <rect x="973" y="84" clip-path="url(#clipPath2)" fill="rgb(178,142,0)" width="99" height="1" stroke="none"/>
      <rect x="1071" y="-7" clip-path="url(#clipPath2)" fill="rgb(178,142,0)" width="1" height="91" stroke="none"/>
    </g>
    <g font-size="13px" stroke-linecap="butt" transform="matrix(1,0,0,1,-226,22)" text-rendering="geometricPrecision" font-family="sans-serif" shape-rendering="geometricPrecision" font-weight="bold" stroke-miterlimit="1.45">
      <text x="986.9023" xml:space="preserve" y="11.0698" clip-path="url(#clipPath21)" stroke="none">FileHandler</text>
    </g>
    <g text-rendering="geometricPrecision" shape-rendering="geometricPrecision" transform="matrix(1,0,0,1,-226,22)">
      <line y2="18" fill="none" x1="973" clip-path="url(#clipPath21)" x2="1071" y1="18"/>
      <line y2="28" fill="none" x1="973" clip-path="url(#clipPath21)" x2="1071" y1="28"/>
      <text stroke-linecap="butt" x="977.3" y="45.9907" clip-path="url(#clipPath21)" font-family="sans-serif" stroke="none" stroke-miterlimit="1.45" xml:space="preserve">Read&lt;Type&gt;(id)</text>
      <text stroke-linecap="butt" x="977.3" y="60.6919" clip-path="url(#clipPath21)" font-family="sans-serif" stroke="none" stroke-miterlimit="1.45" xml:space="preserve">Write(object, id)</text>
      <rect x="388" y="5" clip-path="url(#clipPath2)" fill="rgb(255,204,0)" width="98" height="26" stroke="none"/>
      <rect x="387" y="4" clip-path="url(#clipPath2)" fill="yellow" width="1" height="28" stroke="none"/>
      <rect x="388" y="4" clip-path="url(#clipPath2)" fill="yellow" width="98" height="1" stroke="none"/>
      <rect x="388" y="31" clip-path="url(#clipPath2)" fill="rgb(178,142,0)" width="99" height="1" stroke="none"/>
      <rect x="486" y="4" clip-path="url(#clipPath2)" fill="rgb(178,142,0)" width="1" height="27" stroke="none"/>
    </g>
    <g font-size="13px" stroke-linecap="butt" transform="matrix(1,0,0,1,-226,22)" text-rendering="geometricPrecision" font-family="sans-serif" shape-rendering="geometricPrecision" font-weight="bold" stroke-miterlimit="1.45">
      <text x="406.5995" xml:space="preserve" y="22.0698" clip-path="url(#clipPath22)" stroke="none">UIHandler</text>
      <path fill="none" d="M915 134.9658 L915 100 L750 100 L750 57.042" clip-path="url(#clipPath2)"/>
      <path fill="none" d="M914.9352 198.9973 L914.8787 226.9199" clip-path="url(#clipPath2)"/>
      <path fill="none" d="M915 423.3281 L915 440.0625" clip-path="url(#clipPath2)"/>
      <path fill="none" d="M1097.3199 366.1832 L1097.3199 335.5251" clip-path="url(#clipPath2)"/>
    </g>
    <g stroke-linecap="butt" transform="matrix(1,0,0,1,-226,22)" fill="white" text-rendering="geometricPrecision" shape-rendering="geometricPrecision" stroke="white" stroke-miterlimit="1.45">
      <path d="M1097.3199 320.5251 L1091.3199 336.5251 L1103.3199 336.5251 Z" stroke="none" clip-path="url(#clipPath2)"/>
      <path fill="none" d="M1097.3199 320.5251 L1091.3199 336.5251 L1103.3199 336.5251 Z" clip-path="url(#clipPath2)" stroke="black"/>
      <path fill="none" d="M972.0195 167 L1097.3199 167 L1097.3199 226.866" clip-path="url(#clipPath2)" stroke="black"/>
      <path fill="none" d="M1047.3301 273.6929 L1010.04 273.6929 L1010.04 486.8929 L980.0337 486.8929" clip-path="url(#clipPath2)" stroke="black"/>
      <path d="M965.0337 486.8929 L981.0337 492.8929 L981.0337 480.8929 Z" clip-path="url(#clipPath2)" stroke="none"/>
      <path fill="none" d="M965.0337 486.8929 L981.0337 492.8929 L981.0337 480.8929 Z" clip-path="url(#clipPath2)" stroke="black"/>
      <path fill="none" d="M827.2026 478.3182 L850.0114 479.7375" clip-path="url(#clipPath2)" stroke="black"/>
      <path d="M864.9825 480.6691 L849.386 473.687 L848.6407 485.6638 Z" clip-path="url(#clipPath2)" stroke="none"/>
      <path fill="none" d="M864.9825 480.6691 L849.386 473.687 L848.6407 485.6638 Z" clip-path="url(#clipPath2)" stroke="black"/>
      <path fill="none" d="M1097.3199 492.0858 L1097.3199 475.4862" clip-path="url(#clipPath2)" stroke="black"/>
      <path fill="none" d="M725 57.0381 L725 135" clip-path="url(#clipPath2)" stroke="black"/>
      <path fill="none" d="M700 57.042 L700 100 L472 100 L472 145.3157" clip-path="url(#clipPath2)" stroke="black"/>
      <path fill="none" d="M532.5457 200 L637 200 L637 245.9453 L782.2 245.9453 L778.0844 432.0939" clip-path="url(#clipPath2)" stroke="black"/>
      <path fill="none" d="M532.5123 230.0742 L619.58 230.0742 L619.58 299.9904" clip-path="url(#clipPath2)" stroke="black"/>
      <path fill="none" d="M619.58 432.0907 L619.58 409.2866" clip-path="url(#clipPath2)" stroke="black"/>
      <path fill="none" d="M411.4476 200 L316.5 200 L316.5 300.0101" clip-path="url(#clipPath2)" stroke="black"/>
      <path fill="none" d="M316.5 439.2507 L316.5 424.3093" clip-path="url(#clipPath2)" stroke="black"/>
      <path d="M316.5 409.3093 L310.5 425.3093 L322.5 425.3093 Z" clip-path="url(#clipPath2)" stroke="none"/>
      <path fill="none" d="M316.5 409.3093 L310.5 425.3093 L322.5 425.3093 Z" clip-path="url(#clipPath2)" stroke="black"/>
      <path fill="none" d="M472 254.6549 L472 299.9614" clip-path="url(#clipPath2)" stroke="black"/>
      <path fill="none" d="M472 393.6288 L472 410.7386" clip-path="url(#clipPath2)" stroke="black"/>
      <path fill="none" d="M472 474.8088 L472 494.2937" clip-path="url(#clipPath2)" stroke="black"/>
      <path fill="none" d="M316.5 489.3164 L316.5 507.8837" clip-path="url(#clipPath2)" stroke="black"/>
      <path fill="none" d="M899.0178 33.2531 L972.3069 36.729" clip-path="url(#clipPath2)" stroke="black"/>
      <path fill="none" d="M550.9822 20.766 L487.2858 19.2162" clip-path="url(#clipPath2)" stroke="black"/>
    </g>
  </g>
</svg>
